<svg height="1166" width="720" xmlns="http://www.w3.org/2000/svg">
<rect height="1166" fill="#555" width="720"></rect>
<text fill="#7f7" font-family="Courier New" font-size="12" xml:space="preserve">
<tspan x="10" y="26">10 megabytes installed</tspan>
<tspan x="10" y="42"></tspan>
<tspan x="10" y="58">node_modules</tspan>
<tspan x="10" y="74">└─┬ famous@0.7.1 </tspan>
<tspan x="10" y="90">  └─┬ glslify@2.3.1 </tspan>
<tspan x="10" y="106">    ├─┬ bl@0.9.5 </tspan>
<tspan x="10" y="122">    │ └─┬ readable-stream@1.0.34 </tspan>
<tspan x="10" y="138">    │   ├── core-util-is@1.0.2 </tspan>
<tspan x="10" y="154">    │   ├── isarray@0.0.1 </tspan>
<tspan x="10" y="170">    │   └── string_decoder@0.10.31 </tspan>
<tspan x="10" y="186">    ├─┬ glsl-resolve@0.0.1 </tspan>
<tspan x="10" y="202">    │ ├── resolve@0.6.3 </tspan>
<tspan x="10" y="218">    │ └── xtend@2.2.0 </tspan>
<tspan x="10" y="234">    ├─┬ glslify-bundle@2.0.4 </tspan>
<tspan x="10" y="250">    │ ├─┬ glsl-inject-defines@1.0.3 </tspan>
<tspan x="10" y="266">    │ │ └── glsl-token-inject-block@1.1.0 </tspan>
<tspan x="10" y="282">    │ ├── glsl-token-defines@1.0.0 </tspan>
<tspan x="10" y="298">    │ ├── glsl-token-depth@1.1.2 </tspan>
<tspan x="10" y="314">    │ ├─┬ glsl-token-descope@1.0.2 </tspan>
<tspan x="10" y="330">    │ │ ├── glsl-token-assignments@2.0.2 </tspan>
<tspan x="10" y="346">    │ │ └── glsl-token-properties@1.0.1 </tspan>
<tspan x="10" y="362">    │ ├── glsl-token-scope@1.1.2 </tspan>
<tspan x="10" y="378">    │ ├── glsl-token-string@1.0.1 </tspan>
<tspan x="10" y="394">    │ └── glsl-tokenizer@2.1.2 </tspan>
<tspan x="10" y="410">    ├─┬ glslify-deps@1.3.0 </tspan>
<tspan x="10" y="426">    │ ├── events@1.1.1 </tspan>
<tspan x="10" y="442">    │ ├─┬ findup@0.1.5 </tspan>
<tspan x="10" y="458">    │ │ ├── colors@0.6.2 </tspan>
<tspan x="10" y="474">    │ │ └── commander@2.1.0 </tspan>
<tspan x="10" y="490">    │ ├── graceful-fs@4.1.11 </tspan>
<tspan x="10" y="506">    │ ├── inherits@2.0.3 </tspan>
<tspan x="10" y="522">    │ └─┬ map-limit@0.0.1 </tspan>
<tspan x="10" y="538">    │   └─┬ once@1.3.3 </tspan>
<tspan x="10" y="554">    │     └── wrappy@1.0.2 </tspan>
<tspan x="10" y="570">    ├── minimist@1.2.0 </tspan>
<tspan x="10" y="586">    ├─┬ resolve@1.3.2 </tspan>
<tspan x="10" y="602">    │ └── path-parse@1.0.5 </tspan>
<tspan x="10" y="618">    ├─┬ static-module@1.3.1 </tspan>
<tspan x="10" y="634">    │ ├─┬ concat-stream@1.4.10 </tspan>
<tspan x="10" y="650">    │ │ ├── readable-stream@1.1.14 </tspan>
<tspan x="10" y="666">    │ │ └── typedarray@0.0.6 </tspan>
<tspan x="10" y="682">    │ ├─┬ duplexer2@0.0.2 </tspan>
<tspan x="10" y="698">    │ │ └── readable-stream@1.1.14 </tspan>
<tspan x="10" y="714">    │ ├─┬ escodegen@1.3.3 </tspan>
<tspan x="10" y="730">    │ │ ├── esprima@1.1.1 </tspan>
<tspan x="10" y="746">    │ │ ├── estraverse@1.5.1 </tspan>
<tspan x="10" y="762">    │ │ ├── esutils@1.0.0 </tspan>
<tspan x="10" y="778">    │ │ └─┬ source-map@0.1.43 </tspan>
<tspan x="10" y="794">    │ │   └── amdefine@1.0.1 </tspan>
<tspan x="10" y="810">    │ ├─┬ falafel@1.2.0 </tspan>
<tspan x="10" y="826">    │ │ ├── acorn@1.2.2 </tspan>
<tspan x="10" y="842">    │ │ ├── foreach@2.0.5 </tspan>
<tspan x="10" y="858">    │ │ └── object-keys@1.0.11 </tspan>
<tspan x="10" y="874">    │ ├─┬ has@1.0.1 </tspan>
<tspan x="10" y="890">    │ │ └── function-bind@1.1.0 </tspan>
<tspan x="10" y="906">    │ ├── object-inspect@0.4.0 </tspan>
<tspan x="10" y="922">    │ ├─┬ quote-stream@0.0.0 </tspan>
<tspan x="10" y="938">    │ │ ├── minimist@0.0.8 </tspan>
<tspan x="10" y="954">    │ │ └─┬ through2@0.4.2 </tspan>
<tspan x="10" y="970">    │ │   └─┬ xtend@2.1.2 </tspan>
<tspan x="10" y="986">    │ │     └── object-keys@0.4.0 </tspan>
<tspan x="10" y="1002">    │ ├── shallow-copy@0.0.1 </tspan>
<tspan x="10" y="1018">    │ ├─┬ static-eval@0.2.4 </tspan>
<tspan x="10" y="1034">    │ │ └─┬ escodegen@0.0.28 </tspan>
<tspan x="10" y="1050">    │ │   ├── esprima@1.0.4 </tspan>
<tspan x="10" y="1066">    │ │   └── estraverse@1.3.2 </tspan>
<tspan x="10" y="1082">    │ └─┬ through2@0.4.2 </tspan>
<tspan x="10" y="1098">    │   └─┬ xtend@2.1.2 </tspan>
<tspan x="10" y="1114">    │     └── object-keys@0.4.0 </tspan>
<tspan x="10" y="1130">    ├── through2@0.6.5 </tspan>
<tspan x="10" y="1146">    └── xtend@4.0.1</tspan>
</text>
</svg>
